Coordinates
version=1
nRows=12
nColumns=33
inDegrees=yes

Units are S.I. units (second, meters, Newtons, ...)
Angles are in degrees.

endheader
time	ground_thorax_rot_x	ground_thorax_rot_y	ground_thorax_rot_z	ground_thorax_tx	ground_thorax_ty	ground_thorax_tz	clav_prot_r	clav_elev_r	scapula_abduction_r	scapula_elevation_r	scapula_upward_rot_r	scapula_winging_r	shoulder_elv_r	plane_of_elev_r	axial_rot_r	elbow_flexion_r	pro_sup_r	wrist_flex_r	wrist_dev_r	clav_prot_l	clav_elev_l	scapula_abduction_l	scapula_elevation_l	scapula_upward_rot_l	scapula_winging_l	shoulder_elv_l	plane_of_elev_l	axial_rot_l	elbow_flexion_l	pro_sup_l	wrist_flex_l	wrist_dev_l	
2.3600	-4.826500	7.775744	11.595184	-0.106892	1.026792	0.011132	17.734940	-15.954808	42.034784	-15.242071	21.118786	-10.278424	2.689102	-54.275221	121.811024	-34.534202	-138.929578	0.883812	1.944590	22.950415	-7.903537	-34.500507	-7.577193	-22.427982	11.532550	57.012859	0.929063	10.234768	21.902295	12.516964	23.422603	-3.022983	
2.3700	-4.736621	7.778679	11.403577	-0.106095	1.027274	0.011071	17.668796	-15.652067	42.404798	-15.161201	21.798578	-10.553262	2.368198	-54.291837	121.660835	-33.880190	-139.447565	1.618126	1.623884	23.107037	-8.481816	-34.714849	-7.068956	-22.418051	11.536953	57.298801	1.436461	10.648582	20.448252	12.870735	22.618394	-3.196068	
2.3800	-4.622611	7.782819	11.135337	-0.105289	1.027735	0.011024	17.591185	-15.294731	42.809508	-15.052451	22.551122	-10.870195	2.049768	-54.314616	121.499017	-33.249397	-140.015761	2.399411	1.296137	23.277096	-9.063913	-34.950180	-6.561405	-22.417930	11.551740	57.625592	1.992701	11.134798	19.013054	13.252119	21.719923	-3.409773	
2.3900	-4.552146	7.714839	10.955999	-0.104598	1.028043	0.010943	17.601274	-14.990551	43.208432	-14.930774	23.096840	-11.183700	1.802902	-54.289982	121.374240	-32.754381	-140.484717	2.882746	1.131065	23.426978	-9.501684	-35.166880	-6.150956	-22.357738	11.587528	57.814608	2.479433	11.644098	17.660928	13.607282	20.974254	-3.505730	
2.4000	-4.497549	7.600646	10.805714	-0.103971	1.028266	0.010852	17.650383	-14.708913	43.585644	-14.794773	23.521334	-11.491490	1.603316	-54.239388	121.259191	-32.372159	-140.910190	3.196128	1.066498	23.564161	-9.862195	-35.369703	-5.794521	-22.269167	11.631241	57.947522	2.911007	12.167741	16.399064	13.948759	20.301866	-3.548033	
2.4100	-4.451563	7.440176	10.671225	-0.103401	1.028400	0.010757	17.727320	-14.435715	43.941723	-14.639430	23.849793	-11.798873	1.438532	-54.172668	121.154758	-32.101460	-141.319565	3.372047	1.094094	23.690138	-10.147512	-35.559864	-5.497218	-22.167344	11.682567	58.039200	3.294678	12.711517	15.248127	14.282453	19.669269	-3.563602	
2.4200	-4.408669	7.243098	10.551701	-0.102871	1.028474	0.010671	17.809845	-14.173444	44.252849	-14.472610	24.098384	-12.089112	1.287257	-54.101921	121.049460	-31.928229	-141.739308	3.476022	1.178096	23.802664	-10.386521	-35.729777	-5.245276	-22.075795	11.730205	58.122267	3.611164	13.227086	14.233053	14.603186	19.066572	-3.588336	
2.4300	-4.364134	7.018694	10.427912	-0.102360	1.028508	0.010597	17.875435	-13.916527	44.512771	-14.301824	24.309497	-12.355553	1.133457	-54.038992	120.946929	-31.830133	-142.189203	3.577220	1.281769	23.903194	-10.591679	-35.880233	-5.035752	-22.011736	11.772212	58.221856	3.867878	13.691622	13.373991	14.903159	18.477843	-3.653155	
2.4400	-4.326780	6.768796	10.321151	-0.101878	1.028500	0.010535	17.922383	-13.680748	44.706060	-14.136399	24.465752	-12.582593	0.969982	-53.983973	120.855092	-31.798585	-142.674100	3.682895	1.402571	23.986913	-10.758065	-36.004062	-4.872717	-21.974541	11.805979	58.330021	4.047749	14.069298	12.674756	15.166361	17.932139	-3.757585	
2.4500	-4.295122	6.500638	10.219783	-0.101433	1.028451	0.010484	17.950814	-13.457698	44.845522	-13.973775	24.585413	-12.779450	0.794883	-53.937083	120.779290	-31.823338	-143.217370	3.812705	1.537953	24.056594	-10.883352	-36.106812	-4.755209	-21.958318	11.835891	58.444979	4.172341	14.374181	12.110269	15.391901	17.414245	-3.905980	
2.4600	-4.257995	6.229966	10.135427	-0.101029	1.028360	0.010444	17.957433	-13.231664	44.927086	-13.800709	24.668452	-12.953761	0.595043	-53.906906	120.708237	-31.895287	-143.935482	3.990460	1.718323	24.112232	-10.984834	-36.186152	-4.670793	-21.968153	11.855990	58.561430	4.254493	14.609565	11.640732	15.594385	16.867705	-4.136954	
2.4700	-4.215460	5.962880	10.060671	-0.100675	1.028248	0.010409	17.947582	-13.015505	44.956666	-13.627448	24.712838	-13.100796	0.388176	-53.896064	120.643616	-32.013319	-144.819327	4.208496	1.930690	24.153397	-11.068258	-36.241964	-4.609530	-21.993223	11.865734	58.677987	4.298493	14.780023	11.248330	15.765320	16.307364	-4.431920	
